<svg xmlns="http://www.w3.org/2000/svg">

  <symbol id="icon-home" viewBox="0 0 24 24">
    <path d="M3 9l9-7 9 7v11a2 2 0 0 1-2 2H5a2 2 0 0 1-2-2z"/>
    <polyline points="9 22 9 12 15 12 15 22"/>
  </symbol>

  <symbol id="icon-chat" viewBox="0 0 24 24">
    <path d="M21 15a2 2 0 0 1-2 2H7l-4 4V5a2 2 0 0 1 2-2h14a2 2 0 0 1 2 2z"/>
  </symbol>

  <symbol id="icon-pool" viewBox="0 0 24 24">
    <path d="M21 10c0 7-9 13-9 13s-9-6-9-13a9 9 0 0 1 18 0z"/>
    <circle cx="12" cy="10" r="3"/>
  </symbol>

  <symbol id="icon-drill" viewBox="0 0 24 24">
    <polyline points="22 12 18 12 15 21 9 3 6 12 2 12"/>
  </symbol>

  <symbol id="icon-plan" viewBox="0 0 24 24">
    <rect x="3" y="4" width="18" height="18" rx="2" ry="2"/>
    <line x1="16" y1="2" x2="16" y2="6"/>
    <line x1="8" y1="2" x2="8" y2="6"/>
    <line x1="3" y1="10" x2="21" y2="10"/>
    <line x1="8" y1="14" x2="8.01" y2="14"/>
    <line x1="12" y1="14" x2="16" y2="14"/>
    <line x1="8" y1="18" x2="8.01" y2="18"/>
    <line x1="12" y1="18" x2="14" y2="18"/>
  </symbol>

  <symbol id="icon-training-log" viewBox="0 0 24 24">
    <path d="M16 4h2a2 2 0 0 1 2 2v14a2 2 0 0 1-2 2H6a2 2 0 0 1-2-2V6a2 2 0 0 1 2-2h2"/>
    <rect x="8" y="2" width="8" height="4" rx="1" ry="1"/>
    <line x1="8" y1="13" x2="16" y2="13"/>
    <line x1="8" y1="17" x2="13" y2="17"/>
  </symbol>

  <symbol id="icon-report" viewBox="0 0 24 24">
    <line x1="18" y1="20" x2="18" y2="10"/>
    <line x1="12" y1="20" x2="12" y2="4"/>
    <line x1="6" y1="20" x2="6" y2="14"/>
    <line x1="2" y1="20" x2="22" y2="20"/>
  </symbol>

  <symbol id="icon-challenge" viewBox="0 0 24 24">
    <path d="M6 9H4.5a2.5 2.5 0 0 1 0-5H6"/>
    <path d="M18 9h1.5a2.5 2.5 0 0 0 0-5H18"/>
    <path d="M4 22h16"/>
    <path d="M10 14.66V17c0 .55-.47 1.01-1 1.17L8 19v3h8v-3l-1-.83c-.53-.16-1-.62-1-1.17v-2.34"/>
    <path d="M6 4h12v8a6 6 0 0 1-12 0V4z"/>
  </symbol>

  <symbol id="icon-community" viewBox="0 0 24 24">
    <path d="M17 21v-2a4 4 0 0 0-4-4H5a4 4 0 0 0-4 4v2"/>
    <circle cx="9" cy="7" r="4"/>
    <path d="M23 21v-2a4 4 0 0 0-3-3.87"/>
    <path d="M16 3.13a4 4 0 0 1 0 7.75"/>
  </symbol>

  <symbol id="icon-coach" viewBox="0 0 24 24">
    <path d="M16 21v-2a4 4 0 0 0-4-4H5a4 4 0 0 0-4 4v2"/>
    <circle cx="8.5" cy="7" r="4"/>
    <polyline points="17 11 19 13 23 9"/>
  </symbol>

  <symbol id="icon-badges" viewBox="0 0 24 24">
    <circle cx="12" cy="8" r="6"/>
    <path d="M15.477 12.89L17 22l-5-3-5 3 1.523-9.11"/>
  </symbol>

  <symbol id="icon-faq" viewBox="0 0 24 24">
    <circle cx="12" cy="12" r="10"/>
    <path d="M9.09 9a3 3 0 0 1 5.83 1c0 2-3 3-3 3"/>
    <line x1="12" y1="17" x2="12.01" y2="17"/>
  </symbol>

  <symbol id="icon-glossary" viewBox="0 0 24 24">
    <path d="M4 19.5A2.5 2.5 0 0 1 6.5 17H20"/>
    <path d="M6.5 2H20v20H6.5A2.5 2.5 0 0 1 4 19.5v-15A2.5 2.5 0 0 1 6.5 2z"/>
  </symbol>

  <symbol id="icon-injury" viewBox="0 0 24 24">
    <path d="M12 22s8-4 8-10V5l-8-3-8 3v7c0 6 8 10 8 10z"/>
    <line x1="12" y1="8" x2="12" y2="12"/>
    <line x1="10" y1="10" x2="14" y2="10"/>
  </symbol>

  <symbol id="icon-equipment" viewBox="0 0 24 24">
    <path d="M14.7 6.3a1 1 0 0 0 0 1.4l1.6 1.6a1 1 0 0 0 1.4 0l3.77-3.77a6 6 0 0 1-7.94 7.94l-6.91 6.91a2.12 2.12 0 0 1-3-3l6.91-6.91a6 6 0 0 1 7.94-7.94l-3.76 3.76z"/>
  </symbol>

  <symbol id="icon-videos" viewBox="0 0 24 24">
    <polygon points="23 7 16 12 23 17 23 7"/>
    <rect x="1" y="5" width="15" height="14" rx="2" ry="2"/>
  </symbol>

  <symbol id="icon-feedback" viewBox="0 0 24 24">
    <path d="M12 20h9"/>
    <path d="M16.5 3.5a2.121 2.121 0 0 1 3 3L7 19l-4 1 1-4L16.5 3.5z"/>
  </symbol>

  <symbol id="icon-settings" viewBox="0 0 24 24">
    <circle cx="12" cy="12" r="3"/>
    <path d="M19.4 15a1.65 1.65 0 0 0 .33 1.82l.06.06a2 2 0 0 1-2.83 2.83l-.06-.06a1.65 1.65 0 0 0-1.82-.33 1.65 1.65 0 0 0-1 1.51V21a2 2 0 0 1-4 0v-.09A1.65 1.65 0 0 0 9 19.4a1.65 1.65 0 0 0-1.82.33l-.06.06a2 2 0 0 1-2.83-2.83l.06-.06A1.65 1.65 0 0 0 4.68 15a1.65 1.65 0 0 0-1.51-1H3a2 2 0 0 1 0-4h.09A1.65 1.65 0 0 0 4.6 9a1.65 1.65 0 0 0-.33-1.82l-.06-.06a2 2 0 0 1 2.83-2.83l.06.06A1.65 1.65 0 0 0 9 4.68a1.65 1.65 0 0 0 1-1.51V3a2 2 0 0 1 4 0v.09a1.65 1.65 0 0 0 1 1.51 1.65 1.65 0 0 0 1.82-.33l.06-.06a2 2 0 0 1 2.83 2.83l-.06.06A1.65 1.65 0 0 0 19.4 9a1.65 1.65 0 0 0 1.51 1H21a2 2 0 0 1 0 4h-.09a1.65 1.65 0 0 0-1.51 1z"/>
  </symbol>

  <symbol id="icon-search" viewBox="0 0 24 24">
    <circle cx="11" cy="11" r="8"/>
    <line x1="21" y1="21" x2="16.65" y2="16.65"/>
  </symbol>

  <symbol id="icon-star" viewBox="0 0 24 24">
    <polygon points="12 2 15.09 8.26 22 9.27 17 14.14 18.18 21.02 12 17.77 5.82 21.02 7 14.14 2 9.27 8.91 8.26 12 2"/>
  </symbol>

  <symbol id="icon-robot" viewBox="0 0 24 24">
    <rect x="3" y="11" width="18" height="10" rx="2"/>
    <circle cx="12" cy="5" r="2"/>
    <line x1="12" y1="7" x2="12" y2="11"/>
    <circle cx="8" cy="16" r="1"/>
    <circle cx="16" cy="16" r="1"/>
    <line x1="9" y1="19" x2="15" y2="19"/>
  </symbol>

  <symbol id="icon-fire" viewBox="0 0 24 24">
    <path d="M12 2c0 4-4 6-4 10a4 4 0 0 0 8 0c0-4-4-6-4-10z"/>
    <path d="M12 12c0 2-2 3-2 5a2 2 0 0 0 4 0c0-2-2-3-2-5z"/>
  </symbol>

  <symbol id="icon-trash" viewBox="0 0 24 24">
    <polyline points="3 6 5 6 21 6"/>
    <path d="M19 6l-1 14a2 2 0 0 1-2 2H8a2 2 0 0 1-2-2L5 6"/>
    <path d="M10 11v6"/>
    <path d="M14 11v6"/>
    <path d="M9 6V4h6v2"/>
  </symbol>

  <symbol id="icon-bell" viewBox="0 0 24 24">
    <path d="M18 8A6 6 0 0 0 6 8c0 7-3 9-3 9h18s-3-2-3-9"/>
    <path d="M13.73 21a2 2 0 0 1-3.46 0"/>
  </symbol>

  <symbol id="icon-heart" viewBox="0 0 24 24">
    <path d="M20.84 4.61a5.5 5.5 0 0 0-7.78 0L12 5.67l-1.06-1.06a5.5 5.5 0 0 0-7.78 7.78l1.06 1.06L12 21.23l7.78-7.78 1.06-1.06a5.5 5.5 0 0 0 0-7.78z"/>
  </symbol>

  <symbol id="icon-eye" viewBox="0 0 24 24">
    <path d="M1 12s4-8 11-8 11 8 11 8-4 8-11 8-11-8-11-8z"/>
    <circle cx="12" cy="12" r="3"/>
  </symbol>

  <symbol id="icon-bookmark" viewBox="0 0 24 24">
    <path d="M19 21l-7-5-7 5V5a2 2 0 0 1 2-2h10a2 2 0 0 1 2 2z"/>
  </symbol>

  <symbol id="icon-refresh" viewBox="0 0 24 24">
    <polyline points="1 4 1 10 7 10"/>
    <polyline points="23 20 23 14 17 14"/>
    <path d="M3.51 9a9 9 0 0 1 14.85-3.36L23 10"/>
    <path d="M20.49 15a9 9 0 0 1-14.85 3.36L1 14"/>
  </symbol>

  <symbol id="icon-save" viewBox="0 0 24 24">
    <path d="M19 21H5a2 2 0 0 1-2-2V5a2 2 0 0 1 2-2h11l5 5v11a2 2 0 0 1-2 2z"/>
    <polyline points="17 21 17 13 7 13 7 21"/>
    <polyline points="7 3 7 8 15 8"/>
  </symbol>

  <symbol id="icon-link" viewBox="0 0 24 24">
    <path d="M10 13a5 5 0 0 0 7.54.54l3-3a5 5 0 0 0-7.07-7.07l-1.72 1.71"/>
    <path d="M14 11a5 5 0 0 0-7.54-.54l-3 3a5 5 0 0 0 7.07 7.07l1.71-1.71"/>
  </symbol>

</svg>
